<svg xmlns="http://www.w3.org/2000/svg" xmlns:xlink="http://www.w3.org/1999/xlink" viewBox="0 0 512 512"><defs><style>.cls-1{fill:#f5f5f5;}.cls-2{fill:#dee1ec;}.cls-3{fill:#5e6175;}.cls-4{fill:url(#linear-gradient);}.cls-5{fill:#a9afc4;}.cls-6{fill:#e1830e;}</style><linearGradient id="linear-gradient" x1="223.85" y1="427.43" x2="223.85" y2="301.38" gradientUnits="userSpaceOnUse"><stop offset="0" stop-color="#cacfdd"/><stop offset="1" stop-color="#eef0f1"/></linearGradient></defs><title>Employee</title><g id="Employee"><path class="cls-1" d="M374.72,372.43,363.4,293a56.7,56.7,0,0,0-10.88-26.15h0a56.63,56.63,0,0,0-24.62-18.65l-66.59-26H186.39l-66.59,26A56.68,56.68,0,0,0,84.31,293L73,372.43a36.12,36.12,0,0,0,15.4,34.94l42,28.65H317.31l42-28.65A36.12,36.12,0,0,0,374.72,372.43Z"/><polygon class="cls-2" points="190.29 222.19 223.85 247.17 258.4 222.19 190.29 222.19"/><path class="cls-1" d="M223.85,222.19a58,58,0,0,1-58-58V135.15a58,58,0,0,1,115.92,0v29.08A58,58,0,0,1,223.85,222.19Z"/><rect class="cls-3" x="36" y="443.32" width="375.7" height="6"/><polygon class="cls-1" points="186.4 222.19 190.29 222.19 223.85 247.17 191.59 268.03 172.82 227.49 186.4 222.19"/><polygon class="cls-1" points="261.31 222.19 258.4 222.19 223.85 247.17 256.11 268.03 274.88 227.49 261.31 222.19"/><path class="cls-3" d="M318.23,439H129.47L86.69,409.85A38.87,38.87,0,0,1,70,372l11.32-79.41a59.71,59.71,0,0,1,37.38-47.17l67.12-26.23h76L329,245.42a59.71,59.71,0,0,1,37.37,47.18L377.69,372A38.87,38.87,0,0,1,361,409.85Zm-186.91-6H316.38l41.25-28.13a32.9,32.9,0,0,0,14.12-32c0,.1-.14-1-11.32-79.41A53.7,53.7,0,0,0,326.81,251l-66.07-25.82H187L120.89,251a53.71,53.71,0,0,0-33.62,42.43L76,372.85a32.88,32.88,0,0,0,14.13,32Z"/><path class="cls-3" d="M190.32,272.43l-21.56-46.57,17.07-6.67h5.45l37.83,28.15Zm-13.44-43.3,16,34.51L218.59,247l-29.3-21.81H187Z"/><path class="cls-3" d="M257.38,272.43l-38.84-25.12,38.89-28.12h4.44l17.07,6.67ZM229.16,247l25.68,16.61,16-34.51-10.08-3.94h-1.37Z"/><path class="cls-3" d="M233.59,278.33l10.6-18-20.34-13.15-20.34,13.15,10.6,18L198,417.13h51.74C233.32,276,233.49,278.33,233.59,278.33Z"/><path class="cls-4" d="M109.22,303,124,421.36a6.93,6.93,0,0,0,6.88,6.07h186a6.93,6.93,0,0,0,6.88-6.07L338.48,303a6.92,6.92,0,0,0-6.87-7.78H116.09A6.92,6.92,0,0,0,109.22,303Z"/><circle class="cls-5" cx="223.85" cy="366.89" r="19.48"/><path class="cls-2" d="M320.18,446.32H127.52a8.91,8.91,0,0,1-8.9-8.91v-10H329.08v10A8.9,8.9,0,0,1,320.18,446.32Z"/><path class="cls-3" d="M316.88,430.43h-186a10,10,0,0,1-9.86-8.7L106.24,303.39a9.93,9.93,0,0,1,9.85-11.15H331.61a9.92,9.92,0,0,1,9.85,11.15L326.73,421.73A9.94,9.94,0,0,1,316.88,430.43ZM126.93,421a3.93,3.93,0,0,0,3.9,3.45h186a3.93,3.93,0,0,0,3.89-3.45l14.74-118.33a3.92,3.92,0,0,0-3.9-4.41H116.09a3.93,3.93,0,0,0-3.9,4.41C112.3,302.65,111.81,299.56,126.93,421Z"/><path class="cls-3" d="M320.18,449.32H127.52a11.92,11.92,0,0,1-11.9-11.91v-13H332.08v13A11.92,11.92,0,0,1,320.18,449.32ZM121.62,430.43v7a5.91,5.91,0,0,0,5.9,5.91H320.18a5.91,5.91,0,0,0,5.9-5.91v-7Z"/><path class="cls-3" d="M223.85,225.19a61,61,0,0,1-61-61V135.15a61,61,0,0,1,121.92,0v29.08A61,61,0,0,1,223.85,225.19Zm0-145a55,55,0,0,0-55,55v29.08a55,55,0,0,0,109.92,0V135.15A55,55,0,0,0,223.85,80.19Z"/><rect class="cls-3" x="398.98" y="376.69" width="19.44" height="6"/><rect class="cls-3" x="392" y="351.28" width="19.44" height="6" transform="translate(-132.85 387.83) rotate(-45)"/><rect class="cls-3" x="399.93" y="394.92" width="6" height="19.44" transform="translate(-168.11 403.42) rotate(-45)"/><path class="cls-1" d="M294.38,147.38v8.17a12.27,12.27,0,0,1-3.61,8.7l-3.92,3.94a12.33,12.33,0,0,1-5.15,3.07c.18-2.81.12-2.28.12-36.21A12.32,12.32,0,0,1,294.38,147.38Z"/><path class="cls-1" d="M166,171.23a12.27,12.27,0,0,1-5.06-3L157,164.25a12.26,12.26,0,0,1-3.6-8.7v-8.17a12.32,12.32,0,0,1,12.47-12.33C165.89,170.37,165.84,168.68,166,171.23Z"/><path class="cls-3" d="M278.43,175.36c.51-8,.39-1,.39-43.31h3.24a15.34,15.34,0,0,1,15.32,15.33v8.17a15.36,15.36,0,0,1-4.49,10.83C286.29,173,287,172.8,278.43,175.36Zm6.39-36.89V166l3.83-3.85a9.3,9.3,0,0,0,2.73-6.58v-8.17A9.35,9.35,0,0,0,284.82,138.47Z"/><path class="cls-3" d="M169.28,175.36c-8.53-2.59-7.76-2.35-14.38-9a15.31,15.31,0,0,1-4.48-10.82v-8.17a15.34,15.34,0,0,1,15.32-15.33h3.15C168.89,174.51,168.76,167.32,169.28,175.36Zm-6.39-36.86a9.34,9.34,0,0,0-6.47,8.88v8.17a9.33,9.33,0,0,0,2.71,6.57l3.76,3.77Z"/><path class="cls-6" d="M159.47,131.3a11.7,11.7,0,0,0,5.89,0c6.48-2.29,17.14-9.28,23.5-21h2s14.63,21,46.53,21h50.86v-2.08A63.54,63.54,0,0,0,224.7,65.68H223a63.54,63.54,0,0,0-63.54,63.54Z"/><path class="cls-3" d="M162.68,134.69a21.31,21.31,0,0,1-6.21-1.09v-4.38A66.62,66.62,0,0,1,223,62.68h1.69a66.62,66.62,0,0,1,66.54,66.54v5.08H237.38c-27.28,0-42.46-14.54-47.3-20.15-6.39,10.25-16.29,17.35-23.72,20A11.07,11.07,0,0,1,162.68,134.69Zm-.21-6a5.58,5.58,0,0,0,1.89-.22c5.16-1.83,15.57-8,21.86-19.6l.86-1.57h5.33c8.2,11.75,24.63,21,45,21h47.85A60.61,60.61,0,0,0,224.7,68.68H223A60.61,60.61,0,0,0,162.47,128.69Z"/><path class="cls-3" d="M86.9,213.76a9.62,9.62,0,1,1,9.61-9.61A9.63,9.63,0,0,1,86.9,213.76Zm0-13.23a3.62,3.62,0,1,0,3.61,3.62A3.63,3.63,0,0,0,86.9,200.53Z"/><path class="cls-3" d="M49.55,262.44a13.21,13.21,0,1,1,13.21-13.21A13.22,13.22,0,0,1,49.55,262.44Zm0-20.42a7.21,7.21,0,1,0,7.21,7.21A7.22,7.22,0,0,0,49.55,242Z"/><rect class="cls-1" x="347.4" y="94.98" width="128.6" height="87.25" rx="11.78"/><path class="cls-3" d="M464.22,185.23h-105a14.79,14.79,0,0,1-14.78-14.77v-63.7A14.8,14.8,0,0,1,359.18,92h105A14.8,14.8,0,0,1,479,106.76v63.7A14.79,14.79,0,0,1,464.22,185.23ZM359.18,98a8.79,8.79,0,0,0-8.78,8.78v63.7a8.78,8.78,0,0,0,8.78,8.77h105a8.78,8.78,0,0,0,8.78-8.77v-63.7A8.79,8.79,0,0,0,464.22,98Z"/><circle class="cls-6" cx="383.42" cy="138.61" r="7.07"/><circle class="cls-6" cx="411.7" cy="138.61" r="7.07"/><circle class="cls-6" cx="439.98" cy="138.61" r="7.07"/><path class="cls-5" d="M412.54,322.6h-6v-6h6Zm-16,0h-6v-6h6Zm-16,0h-5.45v-6h5.45Zm42.65-.91-1.44-5.82a24.88,24.88,0,0,0,5-1.84l2.67,5.37A30.33,30.33,0,0,1,423.19,321.69Zm15.07-8.86-4.38-4.1a25.1,25.1,0,0,0,3.21-4.27l5.15,3.07A31.11,31.11,0,0,1,438.26,312.83Zm7.83-15.63-5.91-1.05a27.33,27.33,0,0,0,.39-5.45h6A33.41,33.41,0,0,1,446.09,297.2Zm.48-16.5h-6v-6h6Zm0-16h-6v-6h6Zm0-16h-6v-6h6Zm0-16h-6v-6h6Zm0-16h-6v-6h6Zm0-16h-6v-6h6Z"/><rect class="cls-5" x="349.09" y="316.6" width="6" height="6"/></g></svg>