<svg width="724" height="724" viewBox="0 0 724 724" fill="none" xmlns="http://www.w3.org/2000/svg">
<path d="M702.866 443.643C702.866 429.67 691.819 418.28 677.982 417.726L677.908 417.653H676.873H605.613C601.199 417.653 597.62 414.074 597.62 409.66V338.092C597.62 319.131 589.923 301.957 577.523 289.503L577.515 289.495C565.069 277.104 547.793 269.243 528.871 269.243C509.956 269.243 492.677 277.047 480.227 289.495C467.773 301.894 459.966 319.07 459.966 338.092V557.808C459.966 562.314 458.126 566.547 455.059 569.769C451.834 572.838 447.652 574.675 443.097 574.675C438.503 574.675 434.186 572.81 431.154 569.789C428.036 566.522 426.073 562.324 426.073 557.808V291.423C426.073 272.462 418.376 255.288 405.976 242.835L405.968 242.827L405.96 242.819C393.418 230.44 376.251 222.575 357.324 222.575C338.41 222.575 321.133 230.378 308.682 242.824C296.113 255.233 288.418 272.413 288.418 291.423V518.292C288.418 522.81 286.569 527.04 283.356 530.253C280.312 533.296 276.087 535.159 271.498 535.159C266.894 535.159 262.569 533.286 259.536 530.253C256.319 527.037 254.473 522.859 254.473 518.292V399.585C254.473 380.723 246.773 363.548 234.216 350.993L234.212 350.989C221.757 338.588 204.581 330.894 185.568 330.894C166.548 330.894 149.483 338.592 136.931 350.981L136.922 350.991L136.912 351C124.463 363.557 116.819 380.729 116.819 399.585V409.712C116.819 414.126 113.24 417.705 108.826 417.705H46.4403C32.1128 417.705 20.5 429.317 20.5 443.643C20.5 457.97 32.1128 469.582 46.4403 469.582H119.371C146.646 469.582 168.752 447.478 168.752 420.205V399.585C168.752 395.058 170.606 390.852 173.775 387.819L173.815 387.781L173.853 387.742C176.884 384.575 181.088 382.718 185.672 382.718C190.271 382.718 194.575 384.586 197.596 387.742L197.634 387.781L197.674 387.819C200.843 390.852 202.697 395.058 202.697 399.585V518.292C202.697 537.146 210.392 554.425 222.794 566.881L222.801 566.888L222.809 566.896C235.364 579.288 252.535 586.983 271.55 586.983C290.57 586.983 307.635 579.285 320.187 566.896L320.195 566.888C332.662 554.476 340.299 537.139 340.299 518.292V291.423C340.299 286.728 342.161 282.526 345.322 279.501L345.342 279.482L345.361 279.462C348.437 276.387 352.673 274.4 357.324 274.4C361.951 274.4 366.042 276.369 369.195 279.475L369.208 279.488L369.221 279.501C372.382 282.526 374.244 286.728 374.244 291.423V557.808C374.244 576.663 381.939 593.947 394.506 606.406C406.961 618.806 424.136 626.5 443.15 626.5C462.163 626.5 479.339 618.805 491.794 606.405C504.261 593.993 511.898 576.655 511.898 557.808V338.092C511.898 333.441 513.885 329.206 516.961 326.131C520.036 323.055 524.272 321.068 528.923 321.068C533.537 321.068 537.633 323.026 540.905 326.15C543.932 329.187 545.791 333.401 545.791 338.092V420.205C545.791 447.478 567.897 469.582 595.172 469.582H676.926C691.253 469.582 702.866 457.97 702.866 443.643Z" fill="#F36B21" stroke="#F36B21" stroke-width="5"/>
<path d="M532.152 146.616C504.523 146.616 482.096 169.068 482.096 196.672C482.096 224.276 504.523 246.616 532.152 246.616C559.78 246.616 582.096 224.276 582.096 196.672C582.096 169.068 559.78 146.616 532.152 146.616Z" fill="#F36B21"/>
<path d="M357.628 100C329.999 100 307.572 122.426 307.572 149.996C307.572 177.567 329.999 199.881 357.628 199.881C385.256 199.881 407.572 177.567 407.572 149.996C407.572 122.426 385.256 100 357.628 100Z" fill="#F36B21"/>
<path d="M189.057 208.162C161.428 208.162 139.001 230.588 139.001 258.158C139.001 285.729 161.428 308.043 189.057 308.043C216.686 308.043 239.001 285.729 239.001 258.158C239.001 230.588 216.686 208.162 189.057 208.162Z" fill="#F36B21"/>
</svg>
