<svg xmlns="http://www.w3.org/2000/svg" xmlns:xlink="http://www.w3.org/1999/xlink" viewBox="0 0 512 512"><defs><style>.cls-1{isolation:isolate;}.cls-2{fill:#e1830e;}.cls-3{fill:#5e6175;}.cls-4{fill:#a9afc4;}.cls-5{fill:#f5f5f5;}.cls-10,.cls-11,.cls-15,.cls-16,.cls-6,.cls-7,.cls-8,.cls-9{mix-blend-mode:multiply;}.cls-6{fill:url(#linear-gradient);}.cls-7{fill:url(#linear-gradient-2);}.cls-8{fill:url(#linear-gradient-3);}.cls-9{fill:url(#linear-gradient-4);}.cls-10{fill:url(#linear-gradient-5);}.cls-11{fill:url(#linear-gradient-6);}.cls-12{fill:url(#linear-gradient-7);}.cls-13{fill:url(#linear-gradient-8);}.cls-14{fill:url(#linear-gradient-9);}.cls-15{fill:url(#linear-gradient-10);}.cls-16{fill:url(#linear-gradient-11);}</style><linearGradient id="linear-gradient" x1="116.96" y1="143.63" x2="116.96" y2="116.7" gradientUnits="userSpaceOnUse"><stop offset="0" stop-color="#a9afc4"/><stop offset="1" stop-color="#d4d8e5"/></linearGradient><linearGradient id="linear-gradient-2" x1="157.63" y1="143.63" x2="157.63" y2="116.7" xlink:href="#linear-gradient"/><linearGradient id="linear-gradient-3" x1="271.86" y1="143.63" x2="271.86" y2="116.7" xlink:href="#linear-gradient"/><linearGradient id="linear-gradient-4" x1="312.53" y1="143.63" x2="312.53" y2="116.7" xlink:href="#linear-gradient"/><linearGradient id="linear-gradient-5" x1="188.14" y1="143.94" x2="188.14" y2="108.74" xlink:href="#linear-gradient"/><linearGradient id="linear-gradient-6" x1="241.31" y1="143.94" x2="241.31" y2="108.74" xlink:href="#linear-gradient"/><linearGradient id="linear-gradient-7" x1="212.83" y1="231.63" x2="212.83" y2="166.58" xlink:href="#linear-gradient"/><linearGradient id="linear-gradient-8" x1="212.83" y1="231.63" x2="212.83" y2="166.58" xlink:href="#linear-gradient"/><linearGradient id="linear-gradient-9" x1="181.3" y1="256.08" x2="244.36" y2="256.08" xlink:href="#linear-gradient"/><linearGradient id="linear-gradient-10" x1="181.29" y1="240.09" x2="244.36" y2="240.09" gradientUnits="userSpaceOnUse"><stop offset="0" stop-color="#cacfdd"/><stop offset="1" stop-color="#eef0f1"/></linearGradient><linearGradient id="linear-gradient-11" x1="297.11" y1="173.74" x2="344.01" y2="173.74" xlink:href="#linear-gradient-10"/></defs><title>Lead generation</title><g class="cls-1"><g id="Lead_generation" data-name="Lead generation"><path class="cls-2" d="M212.83,451.63a73.44,73.44,0,0,1-73.36-73.36V324.5h39.18v53.77a34.18,34.18,0,0,0,68.35,0V324.5h39.19v53.77A73.44,73.44,0,0,1,212.83,451.63Z"/><rect class="cls-3" x="139.47" y="299.87" width="39.19" height="24.63"/><rect class="cls-3" x="247" y="299.87" width="39.19" height="24.63"/><path class="cls-3" d="M212.83,454.63a76.45,76.45,0,0,1-76.36-76.36V321.5h45.18v56.77a31.18,31.18,0,0,0,62.35,0V321.5h45.19v56.77A76.45,76.45,0,0,1,212.83,454.63ZM142.47,327.5v50.77a70.36,70.36,0,1,0,140.72,0V327.5H250v50.77a37.18,37.18,0,0,1-74.35,0V327.5Z"/><path class="cls-3" d="M181.65,327.5H136.47V296.87h45.18Zm-39.18-6h33.18V302.87H142.47Z"/><path class="cls-3" d="M289.19,327.5H244V296.87h45.19Zm-39.19-6h33.19V302.87H250Z"/><path class="cls-4" d="M103.81,142.61V121.78A22.37,22.37,0,0,1,126.18,99.4h22.39a22.38,22.38,0,0,1,22.37,22.38v20.83Z"/><path class="cls-5" d="M137.37,99.4A17.17,17.17,0,0,1,120.2,82.23v-4a17.18,17.18,0,1,1,34.35,0v4A17.18,17.18,0,0,1,137.37,99.4Z"/><path class="cls-3" d="M137.37,102.4A20.2,20.2,0,0,1,117.2,82.23v-4a20.18,20.18,0,1,1,40.35,0v4A20.2,20.2,0,0,1,137.37,102.4Zm0-38.34A14.19,14.19,0,0,0,123.2,78.24v4a14.18,14.18,0,0,0,28.35,0v-4A14.19,14.19,0,0,0,137.37,64.06Z"/><path class="cls-6" d="M113.83,142.61V122.5h0a2.63,2.63,0,0,1,2.58,2.11l3.69,18Z"/><path class="cls-7" d="M160.77,142.61V122.5h0a2.63,2.63,0,0,0-2.58,2.11l-3.69,18Z"/><path class="cls-3" d="M173.94,145.61H100.81V121.78A25.41,25.41,0,0,1,126.18,96.4h22.39a25.41,25.41,0,0,1,25.37,25.38Zm-67.13-6h61.13V121.78a19.4,19.4,0,0,0-19.37-19.38H126.18a19.4,19.4,0,0,0-19.37,19.38Z"/><path class="cls-4" d="M258.71,142.61V121.78A22.37,22.37,0,0,1,281.08,99.4h22.39a22.38,22.38,0,0,1,22.37,22.38v20.83Z"/><path class="cls-5" d="M292.27,99.4A17.17,17.17,0,0,1,275.1,82.23v-4a17.18,17.18,0,1,1,34.35,0v4A17.18,17.18,0,0,1,292.27,99.4Z"/><path class="cls-3" d="M292.27,102.4A20.2,20.2,0,0,1,272.1,82.23v-4a20.18,20.18,0,1,1,40.35,0v4A20.2,20.2,0,0,1,292.27,102.4Zm0-38.34A14.19,14.19,0,0,0,278.1,78.24v4a14.18,14.18,0,0,0,28.35,0v-4A14.19,14.19,0,0,0,292.27,64.06Z"/><path class="cls-8" d="M268.73,142.61V122.5h0a2.63,2.63,0,0,1,2.58,2.11l3.69,18Z"/><path class="cls-9" d="M315.67,142.61V122.5h0a2.63,2.63,0,0,0-2.58,2.11l-3.69,18Z"/><path class="cls-3" d="M328.84,145.61H255.71V121.78A25.41,25.41,0,0,1,281.08,96.4h22.39a25.41,25.41,0,0,1,25.37,25.38Zm-67.13-6h61.13V121.78a19.4,19.4,0,0,0-19.37-19.38H281.08a19.4,19.4,0,0,0-19.37,19.38Z"/><path class="cls-4" d="M170.94,142.61V115.38a29.25,29.25,0,0,1,29.25-29.25h29.27a29.25,29.25,0,0,1,29.25,29.25v27.23Z"/><path class="cls-5" d="M214.82,86.13a22.46,22.46,0,0,1-22.45-22.46V58.46a22.46,22.46,0,1,1,44.91,0v5.21A22.46,22.46,0,0,1,214.82,86.13Z"/><path class="cls-3" d="M214.82,89.13a25.49,25.49,0,0,1-25.45-25.46V58.46a25.46,25.46,0,1,1,50.91,0v5.21A25.49,25.49,0,0,1,214.82,89.13Zm0-50.13a19.47,19.47,0,0,0-19.45,19.46v5.21a19.46,19.46,0,1,0,38.91,0V58.46A19.48,19.48,0,0,0,214.82,39Z"/><path class="cls-10" d="M184,142.61V116.32a3.45,3.45,0,0,1,3.38,2.76l4.82,23.53Z"/><path class="cls-11" d="M245.41,142.61V116.32a3.46,3.46,0,0,0-3.38,2.76l-4.82,23.53Z"/><path class="cls-3" d="M261.71,145.61H167.94V115.38a32.28,32.28,0,0,1,32.25-32.25h29.27a32.28,32.28,0,0,1,32.25,32.25Zm-87.77-6h81.77V115.38a26.28,26.28,0,0,0-26.25-26.25H200.19a26.28,26.28,0,0,0-26.25,26.25Z"/><rect class="cls-5" x="81.65" y="142.61" width="262.36" height="37.97"/><polygon class="cls-12" points="81.65 180.58 81.65 184.22 181.29 229.17 244.36 229.17 344.01 184.22 344.01 180.58 81.65 180.58"/><rect class="cls-5" x="81.65" y="142.61" width="262.36" height="37.98"/><path class="cls-13" d="M344,180.59v3.63l-99.65,44.95H181.29L81.65,184.22v-3.63Z"/><polygon class="cls-14" points="181.29 229.17 200.07 282.99 225.6 282.99 244.36 229.17 181.29 229.17"/><polygon class="cls-15" points="244.36 229.17 236.74 251.01 188.91 251.01 181.29 229.17 244.36 229.17"/><path class="cls-3" d="M227.73,286H197.94l-20.87-59.81h71.51Zm-25.53-6h21.27l16.67-47.81H185.52Z"/><path class="cls-3" d="M278,280.76l-6-.56c1-10.5,7.06-16.57,17.56-17.56h.28a11.84,11.84,0,0,0,11.84-11.84,17.91,17.91,0,0,1,7.3-14.4l3.55,4.84a11.88,11.88,0,0,0-4.85,9.56A17.86,17.86,0,0,1,290,268.63C282.51,269.37,278.69,273.23,278,280.76Z"/><path class="cls-3" d="M152.52,280.76c-.71-7.53-4.53-11.39-12-12.13a17.86,17.86,0,0,1-17.69-17.69c-.74-7.49-4.6-11.31-12.13-12l.56-6c10.5,1,16.57,7.06,17.56,17.56v.28a11.85,11.85,0,0,0,11.84,11.84h.28c10.5,1,16.58,7.06,17.56,17.56Z"/><rect class="cls-3" x="297.48" y="428.83" width="6" height="21.66" transform="translate(-222.87 341.22) rotate(-45)"/><rect class="cls-3" x="304.17" y="411.14" width="21.66" height="6"/><rect class="cls-3" x="273.27" y="443.93" width="6" height="21.66"/><path class="cls-4" d="M217.21,479h-6l.05-6h6Zm-16.3-.63c-2-.23-4.1-.52-6.12-.87l1-5.92c1.91.34,3.84.61,5.76.83Zm-16.16-3.17c-2-.56-4-1.19-5.9-1.87l2-5.66c1.83.64,3.69,1.23,5.54,1.76Zm-15.43-5.79c-1.86-.88-3.71-1.82-5.51-2.81l2.89-5.26c1.69.93,3.44,1.82,5.19,2.65Zm-14.27-8.24c-1.69-1.17-3.36-2.41-5-3.68l3.71-4.71c1.52,1.19,3.09,2.36,4.68,3.46Zm-12.72-10.45c-1.48-1.43-2.93-2.93-4.31-4.44l4.43-4c1.3,1.42,2.66,2.82,4.05,4.17Zm-10.86-12.39c-1.23-1.65-2.41-3.35-3.53-5.07l5-3.27c1.05,1.61,2.16,3.22,3.32,4.77Zm-8.7-14c-.94-1.83-1.83-3.7-2.65-5.58l5.5-2.4c.77,1.76,1.61,3.52,2.49,5.24Zm-6.28-15.21c-.63-2-1.2-4-1.7-5.95l5.81-1.47c.48,1.87,1,3.75,1.6,5.59Zm-3.71-16.05c-.29-2-.53-4.1-.7-6.14l6-.5c.16,1.92.38,3.86.66,5.77Zm5-16.38h-6v-6h6Zm0-16h-6v-6h6Zm0-16h-6v-6h6Zm0-16h-6v-2h6Z"/><path class="cls-2" d="M357,62.85a26.84,26.84,0,0,1,26.84,26.84,26.85,26.85,0,0,1,26.85-26.84A26.85,26.85,0,0,1,383.83,36,26.85,26.85,0,0,1,357,62.85Z"/><path class="cls-2" d="M58,277.14a16.22,16.22,0,0,1,16.22,16.22,16.22,16.22,0,0,1,16.22-16.22,16.22,16.22,0,0,1-16.22-16.22A16.22,16.22,0,0,1,58,277.14Z"/><path class="cls-16" d="M344,142.61v41.61L298.2,204.88A86.48,86.48,0,0,1,312,142.61Z"/><path class="cls-3" d="M347,183.58H78.65v-44H347Zm-262.36-6H341v-32H84.65Z"/><path class="cls-3" d="M245,232.17H180.65l-102-46v-8.58H347v8.58Zm-63.07-6h61.78l94.42-42.59H87.52Z"/><circle class="cls-5" cx="383.83" cy="191.16" r="70.15"/><path class="cls-3" d="M383.83,264.31A73.15,73.15,0,1,1,457,191.16,73.23,73.23,0,0,1,383.83,264.31Zm0-140.3A67.15,67.15,0,1,0,451,191.16,67.23,67.23,0,0,0,383.83,124Z"/><path class="cls-2" d="M345.58,180.16h3.26v14h-3.26a4.66,4.66,0,0,1-4.66-4.66v-4.66A4.66,4.66,0,0,1,345.58,180.16Z"/><polygon class="cls-2" points="353.54 204.25 369.4 204.25 363.98 226.16 353.54 226.16 353.54 204.25"/><path class="cls-2" d="M418,160.77c0,57.28.1,53.23-.18,53a80.3,80.3,0,0,0-47.08-15.23H360.6a7.06,7.06,0,0,1-7.06-7.06v-8.43a7,7,0,0,1,7-7h10.23a80.39,80.39,0,0,0,47.06-15.21Z"/></g></g></svg>